<svg viewBox="0 0 256 255.97" xmlns="http://www.w3.org/2000/svg">
 <defs>
  <linearGradient id="f" x1="75.543" x2="81.2" y1="145.99" y2="143.23" gradientTransform="matrix(3.7776 0 0 3.7776 -110.02 -401.24)" gradientUnits="userSpaceOnUse">
   <stop stop-color="#fff" stop-opacity=".36471" offset="0"/>
   <stop stop-color="#fff" stop-opacity="0" offset="1"/>
  </linearGradient>
  <linearGradient id="e" x1="105.83" x2="80.209" y1="15.354" y2="30.531" gradientTransform="matrix(3.7776 0 0 3.7776 -260.41 61.477)" gradientUnits="userSpaceOnUse">
   <stop stop-opacity=".10217" offset="0"/>
   <stop stop-opacity=".30435" offset="1"/>
  </linearGradient>
  <linearGradient id="d" x1="70.725" x2="87.092" y1="12.292" y2="26.895" gradientTransform="matrix(3.7776 0 0 3.7776 -147.15 7.7366)" gradientUnits="userSpaceOnUse">
   <stop stop-opacity=".10217" offset="0"/>
   <stop stop-opacity=".30435" offset="1"/>
  </linearGradient>
  <linearGradient id="c" x1="70.725" x2="81.158" y1="12.292" y2="19.324" gradientTransform="matrix(3.7776 0 0 3.7776 -91.818 103.81)" gradientUnits="userSpaceOnUse">
   <stop stop-opacity=".10217" offset="0"/>
   <stop stop-opacity=".30435" offset="1"/>
  </linearGradient>
  <linearGradient id="b" x1="70.513" x2="55.281" y1="62.847" y2="56.394" gradientTransform="matrix(3.7776 0 0 3.7776 -126.98 -117.94)" gradientUnits="userSpaceOnUse">
   <stop stop-color="#fff" stop-opacity=".36471" offset="0"/>
   <stop stop-color="#fff" stop-opacity="0" offset="1"/>
  </linearGradient>
  <linearGradient id="a" x1="70.513" x2="63.044" y1="62.847" y2="59.204" gradientTransform="matrix(-3.7776 0 0 3.7776 386.4 -183.24)" gradientUnits="userSpaceOnUse">
   <stop stop-color="#fff" stop-opacity=".36471" offset="0"/>
   <stop stop-color="#fff" stop-opacity="0" offset="1"/>
  </linearGradient>
 </defs>
 <path d="m166.49 191.87c-1.7539 0-3.1797 0.54688-4.2773 1.6445-1.0977 1.0977-1.6484 2.5273-1.6484 4.2852 0 1.7539 0.55078 3.1797 1.6484 4.2773 1.0977 1.0977 2.5234 1.6484 4.2773 1.6484 1.7578 0 3.1914-0.55078 4.2891-1.6484s1.6445-2.5234 1.6445-4.2773c0-1.7578-0.54688-3.1875-1.6445-4.2852s-2.5312-1.6445-4.2891-1.6445zm-42.684 3.5117v43.375c0 5.7109 1.2422 9.8086 3.7305 12.297 2.5625 2.4883 6.7344 3.7344 12.52 3.7344h5.9258v-7.0273h-5.9258c-3.0039 0-5.1602-0.69531-6.4766-2.0859-1.2461-1.3906-2.0703-3.7031-1.8672-6.918v-19.77h14.27v-7.0273h-14.27v-16.578zm-90.672 15.699v6.918h19.613c3.1445 0 5.6719 0.98828 7.5742 2.9648 1.9023 1.9023 2.8555 4.3906 2.8555 7.4648v0.66406c-1.8281-1.2422-4.0234-2.2266-6.5859-2.9609-2.5625-0.73047-5.0547-1.0977-7.4688-1.0977h-7.0273c-5.4141 0-9.7695 1.3867-13.062 4.168-3.2969 2.7812-4.9414 6.4805-4.9414 11.129 0 4.6445 1.5742 8.3828 4.7227 11.164 3.2188 2.7812 7.5 4.1719 12.844 4.1719h6.5859c2.9297 0 5.75-0.76953 8.457-2.3086 2.7812-1.5352 5.0117-3.625 6.6953-6.2578v7.6875h7.4688v-26.359c0-5.1953-1.6836-9.3672-5.0508-12.516-3.2969-3.2227-7.6523-4.832-13.066-4.832zm53.828 0.87891v42.828h7.9023v-19.551c0-4.9023 1.4297-8.8203 4.2852-11.75 2.9258-3 6.7305-4.5 11.418-4.5v-7.0273c-3.2227 0-6.332 0.80469-9.332 2.4141-2.9297 1.6133-5.125 3.6992-6.5859 6.2617v-8.6758zm75.578 0v42.828h7.9062v-42.828zm20.836 0 18.984 21.414-18.984 21.414h10.562l13.703-15.457 13.707 15.457h10.562l-18.984-21.414 18.984-21.414h-10.562l-13.707 15.457-13.703-15.457zm-141.28 19.992h7.0273c2.707 0 5.3438 0.4375 7.9062 1.3164 2.6328 0.80469 4.6836 1.9023 6.1484 3.293v0.54688c-0.95312 3.5156-2.7812 6.3359-5.4883 8.457-2.7109 2.125-5.7812 3.1836-9.2227 3.1836h-6.8086c-2.9297 0-5.2695-0.76562-7.0273-2.3047-1.7539-1.5352-2.6328-3.5898-2.6328-6.1133 0-2.5273 0.91406-4.5391 2.7422-6.0742 1.9023-1.5391 4.3555-2.3047 7.3555-2.3047z" fill="#109fcc"/>
 <path d="m128.68 0.30078-30.352 62.23 83.531 46.805zm-39.523 81.031-46.566 95.48 138.18-57.086zm101.83 46.719-43.582 25.02 67.363 23.742z" fill="#109fcc"/>
 <path d="m175.36 150.25 15.633-22.199 23.781 48.762z" fill="url(#f)"/>
 <path d="m42.59 176.81 96.805-57.332 41.375 0.24609z" fill="url(#e)"/>
 <path d="m181.86 109.34-83.531-46.805 21.699-8.3594z" fill="url(#d)"/>
 <path d="m214.77 176.81-67.363-23.742 27.949-2.8203z" fill="url(#c)"/>
 <path d="m42.59 176.81 96.805-57.332-50.238-38.145z" fill="url(#b)"/>
 <path d="m181.86 109.34-61.832-55.164 8.6523-53.871z" fill="url(#a)"/>
</svg>
